<?xml version="1.0" encoding="UTF-8"?>
<svg id="Capa_1" xmlns="http://www.w3.org/2000/svg" version="1.1" viewBox="0 0 1024 974.6">
  <!-- Generator: Adobe Illustrator 29.3.1, SVG Export Plug-In . SVG Version: 2.1.0 Build 151)  -->
  <defs>
    <style>
      .st0 {
        fill: #1d1d1b;
      }
    </style>
  </defs>
  <path class="st0" d="M913.1,60.9c-50.9-35.2-122.3-55.7-184.1-58.9C630.2-3.1,524,1,424.1,0l-40.5-.5C344.9,0,339.8.2,331.9.6l-32.6-.5h-93.9C144.4,0,60.9.2,0,0c0,6.5,0,15.9,0,15.9,68.3-.5,131.5,28,136.2,96.1,8.1,118.1,7.7,643.5,1.6,739.3-4.2,65.6-38,99.8-106.8,107.3C24.2,959.3,0,955.9,0,960.2,0,966.7,0,971.4.4,974.1h677.2c2.9,0,4.9-10.3,1.1-13-3-2.1-13.7-.4-18.7-1.1-46.4-6.3-84.2-38.1-84.2-87.7v-315.1c122.5,10.2,266,7,362.5-79.1,124.1-110.7,111.5-322.6-25.2-417.2h0ZM467.2,494v380.3c0,46.9-41.3,79.3-84.2,85.7-.8.1-1.7.2-2.7.2-2.5-1.6-7.5-.7-14.3-2-47.6-8.7-100.2-36.9-100.2-89.7l-1.7-760.9c2.8-37.8,20.6-64.6,52.3-79.4l97.4,1.5h55.3v405.6c.3,15.6-2,58.6-2,58.6h0ZM833.6,476.2c-69.5,63.5-168,75-257.6,55.2V31c.7-2.5,2.5-2.9,4.7-3.2,12.2-2.1,32.7-3.3,45.5-3.9,88.1-4.1,175.1,11.8,232,84,80.7,102.3,72.6,279.4-24.7,368.3h0Z"/>
</svg>